<svg version="1.0" xmlns="http://www.w3.org/2000/svg"
 width="776.000000pt" height="776.000000pt" viewBox="0 0 776.000000 776.000000"
 preserveAspectRatio="xMidYMid meet">
<g transform="translate(0.000000,776.000000) scale(0.100000,-0.100000)"
fill="#000000" stroke="none">
<path d="M0 3880 l0 -3880 3880 0 3880 0 0 3880 0 3880 -3880 0 -3880 0 0
-3880z m4222 2156 c127 -18 311 -62 398 -96 391 -154 618 -402 712 -778 30
-120 32 -397 4 -517 -121 -517 -494 -899 -1062 -1088 l-123 -41 84 -31 c115
-44 188 -89 265 -165 91 -90 167 -209 293 -460 123 -244 192 -353 285 -452
113 -120 261 -173 410 -148 170 28 318 140 582 438 77 87 128 122 181 122 142
0 195 -267 94 -475 -66 -136 -318 -389 -523 -525 -169 -113 -315 -163 -524
-179 -422 -33 -705 111 -954 485 -43 64 -153 265 -253 463 -189 370 -256 483
-342 570 -59 60 -165 116 -240 126 l-46 7 -22 -124 c-12 -67 -53 -310 -91
-538 -78 -458 -94 -527 -149 -645 -105 -222 -247 -320 -498 -345 -228 -21
-463 35 -645 156 -99 66 -233 197 -307 300 -154 218 -264 535 -300 866 -14
124 -14 497 -1 653 39 452 133 808 305 1160 169 346 374 604 648 817 337 260
751 416 1214 458 137 12 465 4 605 -14z"/>
<path d="M3480 5479 c-255 -33 -488 -119 -688 -253 -143 -96 -323 -286 -423
-446 -220 -349 -330 -746 -360 -1292 -19 -334 9 -617 82 -841 65 -202 162
-346 264 -393 60 -28 76 -29 122 -7 78 36 99 104 188 599 41 228 75 423 75
433 0 15 -11 19 -60 24 -110 12 -163 45 -208 132 -23 43 -27 62 -27 135 0 101
20 147 87 204 54 46 120 66 224 66 l81 0 7 51 c10 77 102 596 130 740 34 167
59 230 119 295 66 73 149 112 257 122 155 15 255 -11 318 -82 74 -84 71 -162
-27 -696 -89 -491 -96 -441 59 -416 358 57 648 252 787 531 64 128 93 255 93
404 0 126 -21 218 -70 318 -127 257 -402 385 -820 382 -80 -1 -174 -5 -210
-10z"/>
</g>
</svg>
