<svg version="1.0" xmlns="http://www.w3.org/2000/svg"
 width="694.000000pt" height="656.000000pt" viewBox="0 0 694.000000 656.000000"
 preserveAspectRatio="xMidYMid meet">
<g transform="translate(0.000000,656.000000) scale(0.100000,-0.100000)"
fill="#fff" stroke="none">
<path d="M3100 5570 c-200 -19 -470 -87 -655 -165 -97 -41 -287 -141 -365
-193 -120 -79 -271 -205 -370 -309 -125 -130 -170 -188 -292 -376 -78 -120
-258 -493 -258 -536 0 -9 -4 -21 -9 -26 -18 -21 -73 -215 -107 -380 -62 -306
-79 -482 -79 -825 0 -289 10 -396 50 -565 8 -33 19 -82 25 -110 6 -27 15 -59
21 -70 5 -11 18 -49 29 -84 11 -36 48 -120 82 -188 211 -420 558 -653 975
-653 181 0 356 54 448 138 34 31 95 106 95 117 0 4 9 18 19 32 26 32 85 190
105 278 17 80 39 195 56 305 6 41 18 111 26 155 31 175 52 303 74 450 5 33 14
76 20 95 5 19 10 49 10 66 0 46 15 54 83 43 106 -17 194 -72 273 -171 91 -114
140 -200 359 -633 208 -412 317 -564 508 -708 199 -151 502 -204 802 -142 129
26 160 37 274 93 142 71 322 213 476 377 122 129 157 179 192 269 25 63 28 84
28 191 0 105 -3 125 -22 161 -24 45 -77 84 -114 84 -47 0 -109 -42 -177 -118
-122 -140 -286 -303 -347 -347 -33 -24 -91 -58 -129 -75 -64 -30 -76 -32 -191
-34 l-122 -1 -85 43 c-156 77 -252 202 -442 576 -64 125 -139 261 -168 304
-114 170 -232 265 -398 323 -85 29 -101 43 -69 60 13 7 49 18 79 25 239 55
531 223 725 419 102 101 140 149 206 255 89 144 144 285 184 470 27 125 10
496 -26 555 -3 6 -9 23 -13 40 -12 49 -86 195 -136 270 -92 136 -254 268 -435
356 -178 85 -390 142 -600 159 -135 11 -501 11 -615 0z m503 -585 c125 -30
179 -53 267 -110 123 -81 198 -175 254 -319 30 -79 31 -85 31 -251 0 -195 -12
-255 -77 -393 -54 -115 -89 -164 -188 -262 -133 -133 -222 -185 -470 -275 -19
-7 -91 -23 -159 -35 -149 -26 -157 -23 -141 55 6 28 17 84 25 125 8 41 21 113
30 160 9 47 20 113 25 148 5 34 16 95 24 135 8 39 23 115 33 167 58 315 -22
433 -294 431 -114 0 -180 -18 -254 -67 -101 -66 -149 -168 -195 -413 -40 -217
-55 -302 -65 -371 -5 -36 -13 -85 -18 -110 -11 -47 -30 -160 -38 -222 -3 -21
-10 -41 -17 -47 -6 -5 -58 -11 -116 -13 -100 -3 -108 -5 -158 -37 -36 -23 -63
-50 -83 -85 -26 -46 -29 -59 -28 -141 0 -79 4 -96 28 -139 44 -79 84 -105 182
-120 l84 -12 -1 -29 c-1 -33 -16 -127 -39 -255 -9 -47 -22 -121 -30 -165 -72
-432 -100 -535 -164 -606 -33 -38 -40 -41 -88 -41 -64 1 -107 26 -183 109 -46
49 -140 209 -140 237 0 5 -6 22 -14 39 -33 75 -69 236 -88 402 -18 154 -16
506 5 700 19 184 53 396 76 475 39 131 53 174 79 246 28 74 125 282 155 329
17 28 98 152 124 190 32 47 239 253 308 306 197 150 483 262 737 289 46 5 171
7 279 5 169 -3 210 -7 302 -30z"/>
</g>
</svg>
